<svg xmlns="http://www.w3.org/2000/svg" xmlns:xlink="http://www.w3.org/1999/xlink" width="1080" zoomAndPan="magnify" viewBox="0 0 810 1439.999935" height="1920" preserveAspectRatio="xMidYMid meet" version="1.0"><defs><clipPath id="37ecc7a55e"><path d="M 132.449219 376.769531 L 691 376.769531 L 691 936.269531 L 132.449219 936.269531 Z M 132.449219 376.769531 " clip-rule="nonzero"/></clipPath></defs><g clip-path="url(#37ecc7a55e)"><path fill="#000000" d="M 410.886719 376.769531 C 264.980469 376.769531 145.316406 488.503906 132.449219 631.050781 L 360.03125 631.050781 L 360.03125 554.769531 C 360.03125 544.496094 366.234375 535.214844 375.71875 531.273438 C 385.230469 527.332031 396.164062 529.519531 403.4375 536.789062 L 505.148438 638.503906 C 515.089844 648.445312 515.089844 664.515625 505.148438 674.457031 L 403.4375 776.171875 C 396.164062 783.441406 385.230469 785.628906 375.71875 781.6875 C 366.210938 777.746094 360.03125 768.464844 360.03125 758.191406 L 360.03125 681.910156 L 132.449219 681.910156 C 145.316406 824.457031 264.980469 936.1875 410.886719 936.1875 C 565.363281 936.1875 690.597656 810.957031 690.597656 656.480469 C 690.597656 502.003906 565.363281 376.769531 410.886719 376.769531 Z M 410.886719 376.769531 " fill-opacity="1" fill-rule="nonzero"/></g></svg>