<svg xmlns="http://www.w3.org/2000/svg" xmlns:xlink="http://www.w3.org/1999/xlink" width="1080" zoomAndPan="magnify" viewBox="0 0 810 1439.999935" height="1920" preserveAspectRatio="xMidYMid meet" version="1.0"><path fill="#000000" d="M 681.5625 818.714844 C 678.300781 799.640625 673.085938 781.058594 668.441406 762.308594 C 658.085938 720.820312 650.34375 678.597656 640.320312 637.027344 C 620.105469 553.316406 597.933594 469.847656 570.707031 388.09375 C 545.601562 312.613281 526.691406 231.589844 484.632812 163.203125 C 468.574219 137.121094 445.75 109.242188 413.71875 104.1875 C 379.484375 98.726562 346.226562 121.46875 323.160156 144.617188 C 275.148438 192.875 256.238281 261.832031 235.941406 324.757812 C 209.859375 405.699219 183.695312 486.71875 163.804688 569.453125 C 147.992188 635.234375 139.105469 701.910156 128.835938 768.667969 C 124.925781 794.179688 121.335938 820.507812 123.863281 846.265625 C 125.984375 867.296875 132.421875 890.28125 151.742188 901.773438 C 167.226562 911.066406 185.976562 910.984375 203.335938 909.355469 C 223.550781 907.15625 243.359375 905.523438 263.738281 906.175781 C 284.847656 906.828125 305.960938 907.804688 327.070312 908.378906 C 337.832031 908.621094 348.589844 908.785156 359.429688 908.949219 C 364.078125 936.90625 356.332031 965.109375 348.996094 992.089844 C 340.765625 1022.328125 333.023438 1052.894531 327.558594 1083.789062 C 322.34375 1113.457031 319.328125 1143.863281 322.34375 1173.941406 C 324.707031 1197.984375 329.679688 1224.070312 343.945312 1244.121094 C 369.375 1279.824219 432.21875 1290.339844 463.847656 1257 C 481.859375 1238.007812 486.097656 1211.925781 486.914062 1186.820312 C 487.8125 1158.289062 486.75 1129.84375 482.429688 1101.640625 C 477.132812 1067.078125 465.722656 1034.476562 454.878906 1001.300781 C 445.097656 971.464844 436.867188 941.144531 437.925781 909.679688 C 443.796875 909.679688 449.664062 909.761719 455.53125 909.761719 C 497.753906 909.761719 539.976562 909.519531 581.957031 905.117188 C 602.171875 902.996094 622.304688 899.980469 642.191406 895.660156 C 658.414062 892.074219 676.917969 888.570312 682.949219 870.800781 C 688.410156 854.660156 684.335938 834.9375 681.5625 818.714844 Z M 371.167969 132.882812 C 386.085938 124.648438 402.714844 120.085938 419.261719 126.117188 C 433.523438 131.332031 445.019531 142.664062 454.308594 154.320312 C 476.808594 182.441406 491.804688 217.410156 504.277344 250.828125 C 517.15625 285.308594 527.261719 320.765625 538.675781 355.734375 C 556.523438 410.589844 573.640625 465.445312 589.210938 520.792969 C 588.640625 520.304688 588.152344 519.8125 587.582031 519.242188 C 578.613281 510.277344 577.472656 495.769531 567.9375 486.800781 C 563.128906 482.238281 556.851562 479.875 550.25 480.117188 C 545.929688 480.28125 542.097656 482.972656 538.023438 483.214844 C 531.175781 483.703125 526.285156 478.324219 522.289062 473.433594 C 509.820312 457.785156 498.246094 441.5625 475.503906 446.371094 C 434.828125 455.011719 447.382812 504.488281 447.707031 533.914062 C 447.871094 545.980469 447.953125 558.042969 446.730469 570.105469 C 445.914062 577.6875 444.855469 593.253906 437.355469 597.902344 C 429.125 602.957031 422.601562 591.382812 420.890625 584.859375 C 417.222656 570.839844 418.851562 555.191406 420.320312 540.925781 C 421.789062 526.171875 423.5 511.335938 425.046875 496.582031 C 426.433594 483.378906 428.308594 470.253906 430.671875 457.214844 C 433.199219 443.601562 437.519531 430.234375 439.800781 416.621094 C 441.269531 407.816406 440.128906 398.527344 432.871094 392.574219 C 426.679688 387.523438 418.691406 389.070312 412.25 385.15625 C 405.648438 381.164062 401.652344 372.605469 397.253906 366.574219 C 392.035156 359.320312 386.167969 351.738281 377.527344 348.476562 C 338.972656 333.644531 355.03125 409.691406 342.152344 424.285156 C 336.769531 430.398438 335.058594 428.683594 332.859375 421.59375 C 330.984375 415.480469 330.332031 409.121094 330.414062 402.683594 C 330.496094 390.621094 333.101562 378.800781 335.386719 367.0625 C 339.214844 347.5 346.714844 319.296875 334.164062 301.363281 C 322.996094 285.550781 300.660156 299.980469 292.835938 280.824219 C 287.292969 267.210938 288.679688 251.398438 287.703125 236.972656 C 293.324219 223.847656 299.519531 211.050781 306.855469 198.742188 C 322.832031 171.925781 343.699219 148.042969 371.167969 132.882812 Z M 452.515625 1058.683594 C 460.75 1087.132812 465.640625 1116.394531 466.863281 1146.0625 C 467.839844 1169.292969 469.144531 1195.050781 463.03125 1217.710938 C 456.59375 1241.675781 438.171875 1257.570312 412.984375 1256.835938 C 392.769531 1256.265625 371.414062 1249.09375 359.675781 1231.8125 C 346.390625 1212.085938 342.558594 1185.679688 341.417969 1162.445312 C 339.949219 1133.917969 343.457031 1105.550781 348.917969 1077.59375 C 354.867188 1047.027344 363.019531 1017.03125 371.007812 986.953125 C 377.769531 961.441406 382.988281 935.355469 379.726562 909.191406 C 392.441406 909.355469 405.160156 909.4375 417.875 909.519531 C 416 961.441406 438.253906 1009.613281 452.515625 1058.683594 Z M 664.039062 864.117188 C 661.023438 872.269531 649.855469 873.246094 642.4375 874.957031 C 632.65625 877.238281 622.792969 879.195312 612.929688 880.828125 C 574.132812 887.265625 534.597656 888.976562 495.308594 889.464844 C 416.246094 890.527344 337.421875 887.753906 258.359375 885.878906 C 239.773438 885.472656 221.757812 887.265625 203.335938 889.222656 C 188.664062 890.609375 170.40625 892.15625 158.34375 881.886719 C 151.496094 876.097656 148.15625 867.296875 146.035156 858.820312 C 140.492188 836.484375 143.019531 812.03125 145.871094 789.453125 C 148.480469 768.832031 152.800781 748.371094 155.410156 727.75 C 160.136719 690.660156 165.761719 653.816406 173.503906 617.21875 C 189.726562 540.191406 212.304688 464.632812 236.105469 389.640625 C 247.355469 354.265625 258.519531 318.890625 270.257812 283.675781 C 270.746094 282.210938 271.238281 280.824219 271.726562 279.355469 C 274.824219 292.804688 281.261719 304.460938 295.363281 309.679688 C 298.789062 310.902344 302.292969 311.636719 305.878906 311.960938 C 310.769531 312.367188 315.824219 310.332031 318.839844 314.324219 C 323.890625 321.007812 320.386719 338.125 319.246094 345.542969 C 315.90625 367.46875 308.894531 389.476562 311.015625 411.894531 C 312.808594 430.804688 322.996094 458.4375 346.878906 445.640625 C 362.609375 437.242188 367.5 420.535156 368.480469 403.90625 C 368.96875 395.429688 368.480469 386.871094 369.457031 378.472656 C 369.863281 374.886719 370.679688 371.464844 371.902344 368.121094 C 372.230469 367.308594 372.390625 366.816406 372.472656 366.410156 C 372.308594 366.980469 372.148438 367.796875 372.308594 367.960938 C 373.777344 369.589844 375.652344 370.976562 377.121094 372.6875 C 388.367188 385.726562 394.480469 402.273438 413.066406 406.351562 C 417.140625 407.246094 420.074219 406.269531 420.644531 410.425781 C 421.460938 416.296875 417.222656 425.097656 415.917969 430.886719 C 412.820312 444.089844 410.375 457.375 408.417969 470.746094 C 405.648438 489.574219 404.34375 508.566406 402.0625 527.476562 C 398.964844 552.417969 392.035156 591.625 413.390625 610.699219 C 422.359375 618.769531 437.03125 621.375 447.625 614.9375 C 457.734375 608.824219 462.296875 596.433594 464.582031 585.511719 C 469.714844 561.382812 469.308594 534.078125 466.78125 509.542969 C 465.640625 498.539062 463.113281 485.171875 468.328125 474.820312 C 473.953125 463.570312 487.484375 463 495.878906 471.316406 C 504.4375 479.710938 509.003906 490.960938 519.4375 497.804688 C 523.839844 500.660156 528.648438 502.695312 533.863281 503.1875 C 540.140625 503.839844 545.03125 500.089844 550.738281 500.089844 C 556.28125 500.089844 558.726562 507.507812 560.84375 511.824219 C 564.269531 518.835938 567.121094 526.335938 572.417969 532.121094 C 577.472656 537.582031 582.445312 540.84375 586.929688 547.203125 C 591.003906 552.988281 595.160156 559.835938 601.113281 563.992188 C 602.988281 571.164062 605.023438 578.339844 606.898438 585.59375 C 616.761719 623.902344 626.136719 662.296875 634.613281 700.929688 C 639.015625 720.820312 642.683594 740.789062 647.492188 760.597656 C 651.648438 777.714844 656.457031 794.585938 660.042969 811.785156 C 661.917969 820.835938 663.46875 829.964844 664.363281 839.175781 C 665.015625 846.917969 666.808594 856.699219 664.039062 864.117188 Z M 664.039062 864.117188 " fill-opacity="1" fill-rule="nonzero"/></svg>